<?xml version="1.0" encoding="utf-8"?>
<svg version="1.1" id="Layer_1" xmlns="http://www.w3.org/2000/svg" xmlns:xlink="http://www.w3.org/1999/xlink" x="0px" y="0px" viewBox="0 0 256 256" style="enable-background:new 0 0 256 256;" xml:space="preserve">
<style type="text/css">
	.st1{fill:#FFFFFF;}
	.st2{fill:#283037;}
	.st3{fill:#4DA825;}
</style>
<g>
	<path class="st1" d="M224.7,53.6l-80.8-48c-9.6-5.7-21.5-5.7-31.2,0l-80.8,48c-9.6,5.7-15.6,16.3-15.6,27.8v95.9
		c0,11.4,5.9,22,15.6,27.8l80.8,48c4.8,2.9,10.2,4.3,15.6,4.3c5.4,0,10.8-1.4,15.6-4.3l80.8-48c9.6-5.7,15.6-16.3,15.6-27.8
		V81.4C240.3,69.9,234.4,59.3,224.7,53.6z"/>
	<path class="st2" d="M224.7,53.6l-80.8-48c-4.8-2.9-10.2-4.3-15.6-4.3c-5.4,0-10.8,1.4-15.6,4.3l-80.8,48
		c-9.6,5.7-15.6,16.3-15.6,27.8v95.9c0,11.4,5.9,22,15.6,27.8l80.8,48c4.8,2.9,10.2,4.3,15.6,4.3c5.4,0,10.8-1.4,15.6-4.3
		l80.8-48c9.6-5.7,15.6-16.3,15.6-27.8V81.4C240.3,69.9,234.4,59.3,224.7,53.6z M115.6,248.1l-80.8-48
		c-7.9-4.7-12.8-13.4-12.8-22.8V81.4c0-9.4,4.9-18.2,12.8-22.8l80.8-48c3.9-2.3,8.3-3.5,12.8-3.5s8.9,1.2,12.8,3.5l80.8,48
		c6.7,4,11.2,10.8,12.4,18.5c-2.7-5.7-8.7-7.3-15.8-3.2L142.1,121c-9.5,5.6-16.6,11.8-16.6,23.3v94.2c0,6.9,2.8,11.3,7,12.6
		c-1.4,0.2-2.8,0.4-4.2,0.4C123.9,251.6,119.4,250.4,115.6,248.1z"/>
	<path class="st3" d="M203.6,186.6l-20.1,12c-0.5,0.3-0.9,0.7-0.9,1.3v5.3c0,0.6,0.4,0.9,1,0.6l20.4-12.4
		c0.5-0.3,0.6-0.9,0.6-1.5v-4.6C204.5,186.5,204.1,186.3,203.6,186.6z"/>
	<path class="st1" d="M160.7,142.2c0.7-0.3,1.2,0.1,1.2,0.9l0.1,7c2.9-1.2,5.4-1.5,7.7-0.9c0.5,0.1,0.7,0.8,0.5,1.6l-1.5,6.2
		c-0.1,0.5-0.4,0.9-0.7,1.2c-0.1,0.1-0.3,0.2-0.4,0.3c-0.2,0.1-0.4,0.1-0.6,0.1c-1-0.2-3.5-0.8-7.5,1.2
		c-4.1,2.1-5.5,5.7-5.5,8.3c0,3.2,1.7,4.1,7.3,4.2c7.5,0.1,10.7,3.4,10.8,10.9c0.1,7.4-3.9,15.3-9.9,20.2l0.1,6.9
		c0,0.8-0.5,1.8-1.2,2.1l-4.1,2.4c-0.7,0.3-1.2-0.1-1.2-0.9l-0.1-6.8c-3.5,1.5-7,1.8-9.3,0.9c-0.4-0.2-0.6-0.8-0.4-1.5l1.5-6.2
		c0.1-0.5,0.4-1,0.7-1.3c0.1-0.1,0.3-0.2,0.4-0.3c0.2-0.1,0.5-0.1,0.7-0.1c2.4,0.8,5.6,0.4,8.6-1.1c3.8-1.9,6.4-5.8,6.3-9.7
		c0-3.5-1.9-5-6.5-5c-5.9,0-11.3-1.1-11.4-9.8c-0.1-7.1,3.6-14.5,9.5-19.2l-0.1-7c0-0.9,0.5-1.8,1.2-2.1L160.7,142.2z"/>
</g>
</svg>